<svg id="Layer_1" data-name="Layer 1" xmlns="http://www.w3.org/2000/svg" xmlns:xlink="http://www.w3.org/1999/xlink" viewBox="0 0 260 260"><defs><style>.cls-1{fill:#231f20;}.cls-2{fill:url(#linear-gradient);}.cls-3{fill:#5f8db5;}.cls-4{fill:#719f94;}.cls-5{fill:#e9831c;}.cls-6{fill:#6d6e71;}.cls-7{fill:#866894;}</style><linearGradient id="linear-gradient" x1="2348.15" y1="-1788.57" x2="2481.99" y2="-1788.57" gradientTransform="translate(1960 2504) rotate(-90)" gradientUnits="userSpaceOnUse"><stop offset="0" stop-color="#fff" stop-opacity="0.05"/><stop offset="1" stop-color="#fff" stop-opacity="0"/></linearGradient></defs><path class="cls-1" d="M44.67,46H185.93a10,10,0,0,1,10,10V162.48a80.63,80.63,0,0,1-80.63,80.63h0a80.63,80.63,0,0,1-80.63-80.63V56a10,10,0,0,1,10-10Z" transform="translate(135.99 -39.19) rotate(45)"/><path class="cls-2" d="M128.58,132.28a80.49,80.49,0,0,0,106.6,6.4,10,10,0,0,0-.25-13.86L135,24.93a10,10,0,0,0-10.25-2.4A80.49,80.49,0,0,0,128.58,132.28Z"/><path class="cls-3" d="M100.8,119.82,82,101a62,62,0,0,0,0,67.46l18.83-18.84a34.06,34.06,0,0,1,0-29.79Z"/><path class="cls-4" d="M129.66,75a59.86,59.86,0,0,0-21.56,4.55h0c-.42.18-13,5.64-21.22,15A56.65,56.65,0,0,0,82,101l18.83,18.83A33.6,33.6,0,0,1,129.53,101h.13Z"/><path class="cls-5" d="M121.52,75.78a58.37,58.37,0,0,1,8.14-.75A58.37,58.37,0,0,0,121.52,75.78Z"/><path class="cls-5" d="M108.1,79.58c.78-.32,1.57-.63,2.36-.91C109.67,79,108.88,79.26,108.1,79.58Z"/><path class="cls-5" d="M118.92,76.26c.79-.17,1.57-.31,2.36-.44C120.49,76,119.71,76.09,118.92,76.26Z"/><path class="cls-5" d="M113.57,77.62c1.66-.5,3.33-.94,5-1.29C116.9,76.68,115.23,77.12,113.57,77.62Z"/><path class="cls-5" d="M171,90.2A59.59,59.59,0,0,0,129.66,75v26a33.67,33.67,0,0,1,23.19,7.88,3.13,3.13,0,0,0,4.24-.15l14-14A3.13,3.13,0,0,0,171,90.2Z"/><path class="cls-5" d="M111.13,78.43c.61-.22,1.22-.42,1.84-.62C112.35,78,111.74,78.21,111.13,78.43Z"/><path class="cls-6" d="M129.66,194.41a60.07,60.07,0,0,1-21.56-4.55h0c-.42-.19-13-5.64-21.22-15A57.44,57.44,0,0,1,82,168.45l18.83-18.84a33.21,33.21,0,0,0,4.77,7.22,33.66,33.66,0,0,0,24,11.6h.13Z"/><path class="cls-7" d="M121.52,193.66a61.57,61.57,0,0,0,8.14.75A61.57,61.57,0,0,1,121.52,193.66Z"/><path class="cls-7" d="M108.1,189.86c.78.32,1.57.62,2.36.91C109.67,190.48,108.88,190.18,108.1,189.86Z"/><path class="cls-7" d="M171.08,174.7l-14-14a3.13,3.13,0,0,0-4.24-.15,33.66,33.66,0,0,1-23.19,7.87v26A59.56,59.56,0,0,0,171,179.23,3.12,3.12,0,0,0,171.08,174.7Z"/><path class="cls-7" d="M118.92,193.18c.79.16,1.57.31,2.36.44C120.49,193.49,119.71,193.34,118.92,193.18Z"/><path class="cls-7" d="M113.57,191.82q2.49.75,5,1.29Q116.06,192.57,113.57,191.82Z"/><path class="cls-7" d="M111.13,191c.61.21,1.22.42,1.84.61C112.35,191.43,111.74,191.22,111.13,191Z"/></svg>